# xmcd CD database file generated by LOLA_Freedb v0.9beta0
# 
# Track frame offsets:
#      150
#      13376
#      26975
#      39975
#      56738
#      89197
#      102614
#      117565
#      129365
#      144547
# 
# Disc length: 2510 seconds
# 
# Revision: 0 
# Processed by: cddbd v1.5.2PL0 Copyright (c) Steve Scherf et al.
# Submitted via: LOLA_Freedb v0.9beta0
# 
DISCID=9909cc0a
DTITLE=Ides of March - Vehicle
DYEAR=1970
DGENRE=
TTITLE0=Ides of March - Vehicle
TTITLE1=Ides of March - Factory Band
TTITLE2=Ides of March - The Sky is Falling
TTITLE3=Ides of March - Home
TTITLE4=Ides of March - Wooden Ships
TTITLE5=Ides of March - Bald Medusa
TTITLE6=Ides of March - Aire of Good Feeling
TTITLE7=Ides of March - Time for Thinking
TTITLE8=Ides of March - One Women Man
TTITLE9=Ides of March - Symphony for Eleanor
EXTD=
EXTT0=
EXTT1=
EXTT2=
EXTT3=
EXTT4=
EXTT5=
EXTT6=
EXTT7=
EXTT8=
EXTT9=
PLAYORDER=
